<svg xmlns="http://www.w3.org/2000/svg" width="1034" height="130" viewBox="0 0 1034 130" fill="none"><g clip-path="url(#clip0_282_4871)"><path fill-rule="evenodd" clip-rule="evenodd" d="M2.6 52.0003C1.16406 52.0003 0 53.1644 0 54.6003V75.4003C0 76.8362 1.16406 78.0003 2.6 78.0003H22.7695C29.6651 78.0003 36.2783 75.261 41.1543 70.3851L46.5768 64.9625L33.6146 52.0003H2.6Z" fill="#099197"></path><path fill-rule="evenodd" clip-rule="evenodd" d="M2.6 52.0003C1.16406 52.0003 0 53.1644 0 54.6003V75.4003C0 76.8362 1.16406 78.0003 2.6 78.0003H22.7695C29.6651 78.0003 36.2783 75.261 41.1543 70.3851L46.5768 64.9625L33.6146 52.0003H2.6Z" fill="black" fill-opacity="0.3"></path><path d="M48.9539 62.5854C50.9043 60.635 52 57.9898 52 55.2315V44.3845C52 37.4889 49.2607 30.8757 44.3848 25.9997L30.0687 11.6837C29.0534 10.6683 27.4071 10.6683 26.3918 11.6837L11.6834 26.3921C10.668 27.4074 10.668 29.0537 11.6834 30.069L33.6146 52.0003L46.5768 64.9625L48.9539 62.5854Z" fill="#099197"></path><path fill-rule="evenodd" clip-rule="evenodd" d="M77.9997 2.6C77.9997 1.16406 76.8356 9.71962e-07 75.3997 9.09195e-07L54.5997 0C53.1638 -6.27668e-08 51.9997 1.16406 51.9997 2.6V22.7695C51.9997 29.6651 54.739 36.2783 59.6149 41.1542L65.0375 46.5768L77.9997 33.6146V2.6Z" fill="#099197"></path><path fill-rule="evenodd" clip-rule="evenodd" d="M77.9997 2.6C77.9997 1.16406 76.8356 9.71962e-07 75.3997 9.09195e-07L54.5997 0C53.1638 -6.27668e-08 51.9997 1.16406 51.9997 2.6V22.7695C51.9997 29.6651 54.739 36.2783 59.6149 41.1542L65.0375 46.5768L77.9997 33.6146V2.6Z" fill="black" fill-opacity="0.3"></path><path d="M67.4146 48.9539C69.365 50.9043 72.0102 52 74.7685 52H85.6155C92.5111 52 99.1243 49.2607 104 44.3848L118.316 30.0687C119.332 29.0533 119.332 27.4071 118.316 26.3918L103.608 11.6834C102.593 10.668 100.946 10.668 99.931 11.6834L77.9997 33.6146L65.0375 46.5768L67.4146 48.9539Z" fill="#099197"></path><path fill-rule="evenodd" clip-rule="evenodd" d="M127.4 77.9997C128.836 77.9997 130 76.8356 130 75.3997V54.5997C130 53.1638 128.836 51.9997 127.4 51.9997L107.231 51.9997C100.335 51.9997 93.7217 54.739 88.8458 59.6149L83.4232 65.0375L96.3853 77.9997L127.4 77.9997Z" fill="#099197"></path><path fill-rule="evenodd" clip-rule="evenodd" d="M127.4 77.9997C128.836 77.9997 130 76.8356 130 75.3997V54.5997C130 53.1638 128.836 51.9997 127.4 51.9997L107.231 51.9997C100.335 51.9997 93.7217 54.739 88.8458 59.6149L83.4232 65.0375L96.3853 77.9997L127.4 77.9997Z" fill="black" fill-opacity="0.3"></path><path d="M81.0461 67.4146C79.0957 69.3649 78 72.0102 78 74.7685V85.6154C78 92.5111 80.7393 99.1243 85.6152 104L99.9313 118.316C100.947 119.332 102.593 119.332 103.608 118.316L118.317 103.608C119.332 102.593 119.332 100.946 118.317 99.9309L96.3853 77.9997L83.4232 65.0375L81.0461 67.4146Z" fill="#099197"></path><path fill-rule="evenodd" clip-rule="evenodd" d="M52.0001 127.4C52.0001 128.836 53.1642 130 54.6001 130H75.4001C76.836 130 78.0001 128.836 78.0001 127.4V107.231C78.0001 100.335 75.2608 93.7217 70.3849 88.8458L64.9623 83.4232L52.0001 96.3854V127.4Z" fill="#099197"></path><path fill-rule="evenodd" clip-rule="evenodd" d="M52.0001 127.4C52.0001 128.836 53.1642 130 54.6001 130H75.4001C76.836 130 78.0001 128.836 78.0001 127.4V107.231C78.0001 100.335 75.2608 93.7217 70.3849 88.8458L64.9623 83.4232L52.0001 96.3854V127.4Z" fill="black" fill-opacity="0.3"></path><path d="M62.5852 81.0461C60.6348 79.0957 57.9895 78 55.2313 78H44.3843C37.4887 78 30.8755 80.7393 25.9995 85.6152L11.6835 99.9313C10.6681 100.947 10.6681 102.593 11.6835 103.608L26.3919 118.317C27.4072 119.332 29.0535 119.332 30.0688 118.317L52.0001 96.3854L64.9623 83.4232L62.5852 81.0461Z" fill="#099197"></path></g><path d="M218.244 110.535C192.769 110.535 176.264 92.8345 176.264 65.4461C176.264 38.2969 193.367 20.2373 218.961 20.2373C239.652 20.2373 255.08 32.3169 258.07 51.0941H241.924C238.934 40.9281 230.204 34.9481 218.602 34.9481C202.456 34.9481 192.29 46.6689 192.29 65.3265C192.29 83.8645 202.576 95.8245 218.602 95.8245C230.443 95.8245 239.532 89.6053 242.403 79.9177H258.31C254.961 98.3361 238.934 110.535 218.244 110.535ZM306.603 78.9609H287.347V109.1H272.038V21.6725H306.603C324.184 21.6725 335.546 33.1541 335.546 50.2569C335.546 67.1205 324.064 78.9609 306.603 78.9609ZM303.613 35.3069H287.347V65.3265H303.374C313.898 65.3265 319.52 59.7053 319.52 50.1373C319.52 40.5693 313.779 35.3069 303.613 35.3069ZM351.286 109.1H335.38L366.954 21.6725H382.622L414.196 109.1H398.05L390.994 88.8877H358.343L351.286 109.1ZM372.814 47.7453L362.888 75.9709H386.568L376.522 47.7453C375.804 45.4729 374.967 42.8417 374.728 41.0477C374.369 42.7221 373.652 45.3533 372.814 47.7453ZM457.794 110.535C432.319 110.535 415.814 92.8345 415.814 65.4461C415.814 38.2969 432.917 20.2373 458.512 20.2373C479.202 20.2373 494.631 32.3169 497.621 51.0941H481.475C478.485 40.9281 469.754 34.9481 458.153 34.9481C442.007 34.9481 431.841 46.6689 431.841 65.3265C431.841 83.8645 442.126 95.8245 458.153 95.8245C469.993 95.8245 479.083 89.6053 481.953 79.9177H497.86C494.511 98.3361 478.485 110.535 457.794 110.535ZM539.4 45.7121C539.4 31.3601 550.881 21.9117 568.104 21.9117C583.532 21.9117 593.698 30.5229 595.014 44.8749H586.283C585.326 35.1873 578.748 29.6857 567.984 29.6857C555.904 29.6857 548.011 35.9049 548.011 45.5925C548.011 53.1273 552.436 57.9113 561.406 60.1837L576.117 63.7717C589.512 67.0009 596.449 74.6553 596.449 86.2565C596.449 101.087 584.967 110.535 567.266 110.535C550.642 110.535 539.4 101.804 538.323 87.8113H547.174C547.652 96.7813 555.546 102.642 567.266 102.642C579.824 102.642 587.838 96.5421 587.838 86.7349C587.838 79.0805 583.532 74.0573 574.323 71.9045L559.851 68.3165C546.456 65.0873 539.4 57.4329 539.4 45.7121ZM629.452 73.3397L600.389 23.4665H610.077L631.246 60.4229C632.203 62.2169 632.92 63.6521 633.757 65.5657C634.834 63.4129 634.834 63.4129 636.389 60.4229L657.319 23.4665H666.767L638.063 73.3397V109.1H629.452V73.3397ZM672.314 45.7121C672.314 31.3601 683.796 21.9117 701.018 21.9117C716.447 21.9117 726.613 30.5229 727.928 44.8749H719.198C718.241 35.1873 711.663 29.6857 700.899 29.6857C688.819 29.6857 680.926 35.9049 680.926 45.5925C680.926 53.1273 685.351 57.9113 694.321 60.1837L709.032 63.7717C722.427 67.0009 729.364 74.6553 729.364 86.2565C729.364 101.087 717.882 110.535 700.181 110.535C683.557 110.535 672.314 101.804 671.238 87.8113H680.088C680.567 96.7813 688.46 102.642 700.181 102.642C712.739 102.642 720.752 96.5421 720.752 86.7349C720.752 79.0805 716.447 74.0573 707.238 71.9045L692.766 68.3165C679.371 65.0873 672.314 57.4329 672.314 45.7121ZM734.711 31.3601V23.4665H796.066V31.3601H769.634V109.1H761.023V31.3601H734.711ZM859.228 109.1H807.919V23.4665H859.108V31.3601H816.531V62.2169H855.161V69.9909H816.531V101.206H859.228V109.1ZM885.204 109.1H876.713V23.4665H885.204L916.42 98.9341L947.635 23.4665H956.247V109.1H947.755V68.4361C947.755 53.4861 947.994 46.9081 948.473 41.0477L920.606 109.1H912.353L884.487 41.4065C884.965 44.6357 885.204 54.0841 885.204 67.1205V109.1ZM970.964 45.7121C970.964 31.3601 982.446 21.9117 999.668 21.9117C1015.1 21.9117 1025.26 30.5229 1026.58 44.8749H1017.85C1016.89 35.1873 1010.31 29.6857 999.548 29.6857C987.469 29.6857 979.575 35.9049 979.575 45.5925C979.575 53.1273 984 57.9113 992.97 60.1837L1007.68 63.7717C1021.08 67.0009 1028.01 74.6553 1028.01 86.2565C1028.01 101.087 1016.53 110.535 998.831 110.535C982.206 110.535 970.964 101.804 969.888 87.8113H978.738C979.216 96.7813 987.11 102.642 998.831 102.642C1011.39 102.642 1019.4 96.5421 1019.4 86.7349C1019.4 79.0805 1015.1 74.0573 1005.89 71.9045L991.416 68.3165C978.02 65.0873 970.964 57.4329 970.964 45.7121Z" fill="#093B3D"></path><defs><clipPath id="clip0_282_4871"><rect width="130" height="130" fill="white"></rect></clipPath></defs></svg>