<svg width="203" height="237" viewBox="0 0 203 237" fill="none" xmlns="http://www.w3.org/2000/svg">
<rect x="0.5" y="12.5" width="189" height="224" fill="#D9D9D9" stroke="black"/>
<rect x="6.5" y="7.5" width="189" height="224" fill="#D9D9D9" stroke="black"/>
<rect x="13.5" y="0.5" width="189" height="224" fill="#D9D9D9" stroke="black"/>
<path d="M28 21H167" stroke="black" stroke-width="4" stroke-linecap="round"/>
<path d="M28 36H139" stroke="black" stroke-width="3" stroke-linecap="round"/>
<path d="M28 48H127" stroke="black" stroke-width="3" stroke-linecap="round"/>
<path d="M28 60H139" stroke="black" stroke-width="3" stroke-linecap="round"/>
<path d="M28 72H101" stroke="black" stroke-width="3" stroke-linecap="round"/>
<path d="M28 84H139" stroke="black" stroke-width="3" stroke-linecap="round"/>
<path d="M28 96H150" stroke="black" stroke-width="3" stroke-linecap="round"/>
<path d="M28 108H100" stroke="black" stroke-width="3" stroke-linecap="round"/>
<path d="M28 120H150" stroke="black" stroke-width="3" stroke-linecap="round"/>
<path d="M28 132H139" stroke="black" stroke-width="3" stroke-linecap="round"/>
<path d="M28 144H150" stroke="black" stroke-width="3" stroke-linecap="round"/>
<path d="M28 156H112" stroke="black" stroke-width="3" stroke-linecap="round"/>
<path d="M28 168H150" stroke="black" stroke-width="3" stroke-linecap="round"/>
<path d="M28 180H139" stroke="black" stroke-width="3" stroke-linecap="round"/>
<path d="M28 192H150" stroke="black" stroke-width="3" stroke-linecap="round"/>
<path d="M28 204H116" stroke="black" stroke-width="3" stroke-linecap="round"/>
</svg>
