<svg width="1920" height="1080" viewBox="0 0 1920 1080" fill="none" xmlns="http://www.w3.org/2000/svg">
<g clip-path="url(#clip0_481_190)">
<rect width="1920" height="1080" fill="#E8E8E8"/>
<path d="M1645.71 0.336792L-274.286 -1051.53V1052.21L1645.71 0.336792Z" fill="#E2E2E2"/>
<path d="M1371.43 0.336365L0 -751V751.673L1371.43 0.336365Z" fill="#DBDADA"/>
<path d="M1096.14 -0.719482L-1 -615V613.561L1096.14 -0.719482Z" fill="#D1D1D1"/>
<path d="M822.857 1.69437L0 -445V448.389L822.857 1.69437Z" fill="#DBDADA"/>
<path d="M547.571 2.47211L-1 -291V295.944L547.571 2.47211Z" fill="#E2E2E2"/>
<path d="M273.286 1.56799L-1 -148V151.136L273.286 1.56799Z" fill="#E8E8E8"/>
<path d="M273 1079.6L1918.71 178V1981.21L273 1079.6Z" fill="#E2E2E2"/>
<path d="M547.284 1079.87L1918.71 328.534V1831.21L547.284 1079.87Z" fill="#DBDADA"/>
<path d="M822.57 1078.81L1919.71 464.534V1693.1L822.57 1078.81Z" fill="#D1D1D1"/>
<path d="M1095.86 1081.23L1918.71 634.534V1527.92L1095.86 1081.23Z" fill="#DBDADA"/>
<path d="M1371.14 1082.01L1919.71 788.534V1375.48L1371.14 1082.01Z" fill="#E2E2E2"/>
<path d="M1640.43 1081.1L1914.71 931.534V1230.67L1640.43 1081.1Z" fill="#E8E8E8"/>
</g>
<defs>
<clipPath id="clip0_481_190">
<rect width="1920" height="1080" fill="white"/>
</clipPath>
</defs>
</svg>
